<svg width="190" height="47" viewBox="0 0 190 47" fill="none" xmlns="http://www.w3.org/2000/svg">
<path d="M66.7727 35H60.321V17.5455H66.7642C68.5426 17.5455 70.0739 17.8949 71.358 18.5938C72.6477 19.2869 73.642 20.2869 74.3409 21.5938C75.0398 22.8949 75.3892 24.4517 75.3892 26.2642C75.3892 28.0824 75.0398 29.6449 74.3409 30.9517C73.6477 32.2585 72.6562 33.2614 71.3665 33.9602C70.0767 34.6534 68.5455 35 66.7727 35ZM64.5398 31.4034H66.6108C67.5881 31.4034 68.4148 31.2386 69.0909 30.9091C69.7727 30.5739 70.2869 30.0312 70.6335 29.2812C70.9858 28.5256 71.1619 27.5199 71.1619 26.2642C71.1619 25.0085 70.9858 24.0085 70.6335 23.2642C70.2813 22.5142 69.7614 21.9744 69.0739 21.6449C68.392 21.3097 67.5511 21.142 66.5511 21.142H64.5398V31.4034ZM80.3426 35.2216C79.5074 35.2216 78.7659 35.0824 78.1182 34.804C77.4761 34.5199 76.9676 34.0937 76.5926 33.5256C76.2233 32.9517 76.0386 32.233 76.0386 31.3693C76.0386 30.642 76.1665 30.0284 76.4222 29.5284C76.6778 29.0284 77.0301 28.6222 77.479 28.3097C77.9278 27.9972 78.4449 27.7614 79.0301 27.6023C79.6153 27.4375 80.2403 27.3267 80.9051 27.2699C81.6494 27.2017 82.2489 27.1307 82.7034 27.0568C83.158 26.9773 83.4875 26.8665 83.692 26.7244C83.9023 26.5767 84.0074 26.3693 84.0074 26.1023V26.0597C84.0074 25.6222 83.8568 25.2841 83.5557 25.0455C83.2545 24.8068 82.8483 24.6875 82.3369 24.6875C81.7858 24.6875 81.3426 24.8068 81.0074 25.0455C80.6722 25.2841 80.4591 25.6136 80.3682 26.0341L76.5244 25.8977C76.6381 25.1023 76.9307 24.392 77.4023 23.767C77.8795 23.1364 78.533 22.642 79.3625 22.2841C80.1977 21.9205 81.2006 21.7386 82.371 21.7386C83.2062 21.7386 83.9761 21.8381 84.6807 22.0369C85.3852 22.2301 85.9989 22.5142 86.5216 22.8892C87.0443 23.2585 87.4477 23.7131 87.7318 24.2528C88.0216 24.7926 88.1665 25.4091 88.1665 26.1023V35H84.246V33.1761H84.1437C83.9108 33.6193 83.6125 33.9943 83.2489 34.3011C82.8909 34.608 82.4676 34.8381 81.979 34.9915C81.496 35.1449 80.9506 35.2216 80.3426 35.2216ZM81.6295 32.4943C82.0784 32.4943 82.4818 32.4034 82.8398 32.2216C83.2034 32.0398 83.4932 31.7898 83.7091 31.4716C83.925 31.1477 84.033 30.7727 84.033 30.3466V29.1023C83.9136 29.1648 83.7687 29.2216 83.5983 29.2727C83.4335 29.3239 83.2517 29.3722 83.0528 29.4176C82.854 29.4631 82.6494 29.5028 82.4392 29.5369C82.229 29.571 82.0273 29.6023 81.8341 29.6307C81.442 29.6932 81.1068 29.7898 80.8284 29.9205C80.5557 30.0511 80.3455 30.2216 80.1977 30.4318C80.0557 30.6364 79.9847 30.8807 79.9847 31.1648C79.9847 31.5966 80.1381 31.9261 80.4449 32.1534C80.7574 32.3807 81.1523 32.4943 81.6295 32.4943ZM93.6824 27.5341V35H89.5148V21.9091H93.4778V24.3125H93.6227C93.9125 23.5114 94.4068 22.8835 95.1057 22.429C95.8045 21.9688 96.6369 21.7386 97.6028 21.7386C98.5233 21.7386 99.3216 21.946 99.9977 22.3608C100.68 22.7699 101.208 23.3437 101.583 24.0824C101.964 24.8153 102.151 25.6733 102.145 26.6562V35H97.9778V27.4744C97.9835 26.7472 97.7989 26.179 97.4239 25.7699C97.0545 25.3608 96.5403 25.1562 95.8813 25.1562C95.4438 25.1562 95.0574 25.2528 94.7222 25.446C94.3926 25.6335 94.1369 25.9034 93.9551 26.2557C93.779 26.608 93.6881 27.0341 93.6824 27.5341ZM103.526 35V21.9091H107.693V35H103.526ZM105.614 20.3835C105.029 20.3835 104.526 20.1903 104.105 19.804C103.685 19.4119 103.475 18.9403 103.475 18.3892C103.475 17.8437 103.685 17.3778 104.105 16.9915C104.526 16.5994 105.029 16.4034 105.614 16.4034C106.205 16.4034 106.708 16.5994 107.122 16.9915C107.543 17.3778 107.753 17.8437 107.753 18.3892C107.753 18.9403 107.543 19.4119 107.122 19.804C106.708 20.1903 106.205 20.3835 105.614 20.3835ZM115.265 35.2472C113.896 35.2472 112.714 34.9773 111.72 34.4375C110.731 33.892 109.97 33.1165 109.436 32.1108C108.907 31.0994 108.643 29.8977 108.643 28.5057C108.643 27.1534 108.91 25.9716 109.444 24.9602C109.978 23.9432 110.731 23.1534 111.703 22.5909C112.674 22.0227 113.819 21.7386 115.138 21.7386C116.069 21.7386 116.922 21.8835 117.694 22.1733C118.467 22.4631 119.135 22.892 119.697 23.4602C120.26 24.0284 120.697 24.7301 121.01 25.5653C121.322 26.3949 121.478 27.3466 121.478 28.4205V29.4602H110.101V27.0398H117.601C117.595 26.5966 117.49 26.2017 117.285 25.8551C117.081 25.5085 116.799 25.2386 116.441 25.0455C116.089 24.8466 115.683 24.7472 115.223 24.7472C114.757 24.7472 114.339 24.8523 113.97 25.0625C113.601 25.267 113.308 25.5483 113.092 25.9062C112.876 26.2585 112.763 26.6591 112.751 27.108V29.571C112.751 30.1051 112.856 30.5739 113.066 30.9773C113.277 31.375 113.575 31.6847 113.961 31.9062C114.348 32.1278 114.808 32.2386 115.342 32.2386C115.711 32.2386 116.047 32.1875 116.348 32.0852C116.649 31.983 116.907 31.8324 117.123 31.6335C117.339 31.4347 117.501 31.1903 117.609 30.9006L121.436 31.0114C121.277 31.8693 120.927 32.6165 120.388 33.2528C119.853 33.8835 119.152 34.375 118.282 34.7273C117.413 35.0739 116.407 35.2472 115.265 35.2472ZM126.575 17.5455V35H122.407V17.5455H126.575ZM147.827 23.8693H143.566C143.509 23.4318 143.393 23.0369 143.216 22.6847C143.04 22.3324 142.807 22.0312 142.518 21.7812C142.228 21.5312 141.884 21.3409 141.486 21.2102C141.094 21.0739 140.66 21.0057 140.182 21.0057C139.336 21.0057 138.606 21.2131 137.992 21.6278C137.384 22.0426 136.915 22.642 136.586 23.4261C136.262 24.2102 136.1 25.1591 136.1 26.2727C136.1 27.4318 136.265 28.4034 136.594 29.1875C136.93 29.9659 137.398 30.554 138.001 30.9517C138.609 31.3437 139.327 31.5398 140.157 31.5398C140.623 31.5398 141.046 31.4801 141.427 31.3608C141.813 31.2415 142.151 31.0682 142.441 30.8409C142.736 30.608 142.978 30.3267 143.165 29.9972C143.359 29.6619 143.492 29.2841 143.566 28.8636L147.827 28.8892C147.753 29.6619 147.529 30.4233 147.154 31.1733C146.785 31.9233 146.276 32.608 145.628 33.2273C144.981 33.8409 144.191 34.3295 143.259 34.6932C142.333 35.0568 141.27 35.2386 140.072 35.2386C138.492 35.2386 137.077 34.892 135.827 34.1989C134.583 33.5 133.6 32.483 132.878 31.1477C132.157 29.8125 131.796 28.1875 131.796 26.2727C131.796 24.3523 132.162 22.7244 132.895 21.3892C133.628 20.054 134.62 19.0398 135.87 18.3466C137.12 17.6534 138.52 17.3068 140.072 17.3068C141.128 17.3068 142.106 17.4545 143.003 17.75C143.901 18.0398 144.691 18.4659 145.373 19.0284C146.055 19.5852 146.609 20.2699 147.035 21.0824C147.461 21.8949 147.725 22.8239 147.827 23.8693ZM153.209 27.5341V35H149.041V17.5455H153.073V24.3125H153.217C153.513 23.5057 153.996 22.875 154.666 22.4205C155.342 21.9659 156.169 21.7386 157.146 21.7386C158.067 21.7386 158.868 21.9432 159.55 22.3523C160.232 22.7557 160.76 23.3267 161.135 24.0653C161.516 24.804 161.703 25.6676 161.698 26.6562V35H157.53V27.4744C157.536 26.7472 157.354 26.179 156.985 25.7699C156.615 25.3608 156.095 25.1562 155.425 25.1562C154.987 25.1562 154.601 25.2528 154.266 25.446C153.936 25.6335 153.678 25.9034 153.49 26.2557C153.308 26.608 153.215 27.0341 153.209 27.5341ZM163.099 35V21.9091H167.267V35H163.099ZM165.187 20.3835C164.602 20.3835 164.099 20.1903 163.679 19.804C163.258 19.4119 163.048 18.9403 163.048 18.3892C163.048 17.8437 163.258 17.3778 163.679 16.9915C164.099 16.5994 164.602 16.4034 165.187 16.4034C165.778 16.4034 166.281 16.5994 166.696 16.9915C167.116 17.3778 167.326 17.8437 167.326 18.3892C167.326 18.9403 167.116 19.4119 166.696 19.804C166.281 20.1903 165.778 20.3835 165.187 20.3835ZM168.719 35V21.9091H172.683V24.3125H172.827C173.1 23.517 173.56 22.8892 174.208 22.429C174.856 21.9688 175.629 21.7386 176.526 21.7386C177.435 21.7386 178.214 21.9716 178.862 22.4375C179.509 22.9034 179.921 23.5284 180.097 24.3125H180.234C180.478 23.5341 180.955 22.9119 181.665 22.446C182.376 21.9744 183.214 21.7386 184.18 21.7386C185.418 21.7386 186.424 22.1364 187.197 22.9318C187.969 23.7216 188.356 24.8068 188.356 26.1875V35H184.188V27.142C184.188 26.4886 184.021 25.9915 183.685 25.6506C183.35 25.304 182.915 25.1307 182.381 25.1307C181.808 25.1307 181.356 25.3182 181.026 25.6932C180.702 26.0625 180.54 26.5597 180.54 27.1847V35H176.535V27.0994C176.535 26.4915 176.37 26.0114 176.04 25.6591C175.711 25.3068 175.276 25.1307 174.737 25.1307C174.373 25.1307 174.052 25.2187 173.773 25.3949C173.495 25.5653 173.276 25.8097 173.117 26.1278C172.964 26.446 172.887 26.821 172.887 27.2528V35H168.719Z" fill="black"/>
<path d="M47 23.5C47 10.5213 36.4787 0 23.5 0C10.5213 0 0 10.5213 0 23.5C0 36.4787 10.5213 47 23.5 47C36.4787 47 47 36.4787 47 23.5Z" fill="#F4FEAB"/>
<path d="M23.5 47C36.4787 47 47 36.4787 47 23.5C47 10.5213 36.4787 0 23.5 0C10.5213 0 0 10.5213 0 23.5C0 36.4787 10.5213 47 23.5 47Z" fill="#F4FEAB"/>
<path d="M11.765 32.5607H8.58154V36.9474H11.765C12.8993 36.9474 13.8957 36.2455 13.8957 34.754C13.8957 33.2626 12.8993 32.5607 11.765 32.5607ZM11.3389 36.0011H9.70954V33.507H11.3389C12.1911 33.507 12.7677 33.6887 12.7677 34.754C12.7677 35.8194 12.1911 36.0011 11.3389 36.0011ZM18.9409 33.4568V32.5607H14.3035V36.9474H18.9409V36.0512H15.4315V35.1614H18.9409V34.3467H15.4315V33.4568H18.9409ZM19.2897 35.4371C19.2897 36.703 20.3613 37.01 22.1598 37.01C23.7829 37.01 24.8921 36.7719 24.8921 35.6C24.8921 34.4908 23.8205 34.3968 22.0909 34.3028C20.8125 34.2276 20.5493 34.165 20.5493 33.8266C20.5493 33.5007 20.8125 33.3942 21.9217 33.3942C23.0936 33.3942 23.5761 33.5132 23.5761 33.9958H24.7041C24.7041 32.9116 23.7014 32.498 22.047 32.498C20.4052 32.498 19.4213 32.8051 19.4213 33.7702C19.4213 34.754 20.1796 35.0548 22.0909 35.1426C23.5134 35.2115 23.7641 35.2742 23.7641 35.6376C23.7641 35.9823 23.4069 36.1139 22.2225 36.1139C20.7937 36.1139 20.4177 35.9008 20.4177 35.4371H19.2897ZM26.4288 32.5607H25.3008V36.9474H26.4288V32.5607ZM29.5183 35.3306H31.1539C31.1288 35.6627 30.6902 36.139 29.5998 36.139C28.1396 36.139 27.9328 35.3118 27.9328 34.7791C27.9328 34.2527 28.1334 33.4443 29.5998 33.4443C30.7904 33.4443 31.0912 33.9394 31.1539 34.2715H32.3007C32.2318 33.1811 31.3544 32.498 29.5998 32.498C27.795 32.498 26.8048 33.3002 26.8048 34.754C26.8048 36.2079 27.795 37.01 29.4118 37.01C30.3455 37.01 31.0035 36.7092 31.4171 36.258L31.4672 36.9474H32.3007V34.5974H29.5183V35.3306ZM37.267 32.5607V35.857L34.2716 32.5607H32.7425V36.9474H33.8705V33.6574L36.8597 36.9474H38.395V32.5607H37.267Z" fill="black"/>
<path d="M33.0391 28.5866V29.7146H37.4257V28.5866H33.0391ZM36.4795 26.6454H33.0391V27.7734H37.4257V23.2614H36.4795V26.6454ZM37.4257 17.8326V16.5856L33.0391 18.8541V20.3769L37.4257 22.6392V21.3984L36.492 20.9284V18.3026L37.4257 17.8326ZM35.6523 20.5085L33.8725 19.6124L35.6523 18.7225V20.5085ZM33.0391 11.4781H36.3353L33.0391 14.4736V16.0026H37.4257V14.8746H34.1357L37.4257 11.8854V10.3501H33.0391V11.4781Z" fill="black"/>
<path d="M33.0394 28.5869V28.3693H32.8218V28.5869H33.0394ZM33.0394 29.7149H32.8218V29.9325H33.0394V29.7149ZM37.426 29.7149V29.9325H37.6436V29.7149H37.426ZM37.426 28.5869H37.6436V28.3693H37.426V28.5869ZM32.8218 28.5869V29.7149H33.257V28.5869H32.8218ZM33.0394 29.9325H37.426V29.4973H33.0394V29.9325ZM37.6436 29.7149V28.5869H37.2084V29.7149H37.6436ZM37.426 28.3693H33.0394V28.8045H37.426V28.3693ZM36.4798 26.6457V26.8633H36.6974V26.6457H36.4798ZM33.0394 26.6457V26.4281H32.8218V26.6457H33.0394ZM33.0394 27.7737H32.8218V27.9913H33.0394V27.7737ZM37.426 27.7737V27.9913H37.6436V27.7737H37.426ZM37.426 23.2617H37.6436V23.0441H37.426V23.2617ZM36.4798 23.2617V23.0441H36.2622V23.2617H36.4798ZM36.4798 26.4281H33.0394V26.8633H36.4798V26.4281ZM32.8218 26.6457V27.7737H33.257V26.6457H32.8218ZM33.0394 27.9913H37.426V27.5561H33.0394V27.9913ZM37.6436 27.7737V23.2617H37.2084V27.7737H37.6436ZM37.426 23.0441H36.4798V23.4793H37.426V23.0441ZM36.2622 23.2617V26.6457H36.6974V23.2617H36.2622ZM37.426 17.8329L37.5239 18.0273L37.6436 17.967V17.8329H37.426ZM37.426 16.5859H37.6436V16.2284L37.3261 16.3926L37.426 16.5859ZM33.0394 18.8544L32.9394 18.6611L32.8218 18.722V18.8544H33.0394ZM33.0394 20.3772H32.8218V20.5098L32.9396 20.5706L33.0394 20.3772ZM37.426 22.6395L37.3263 22.8329L37.6436 22.9965V22.6395H37.426ZM37.426 21.3987H37.6436V21.2646L37.5239 21.2043L37.426 21.3987ZM36.4923 20.9287H36.2747V21.0628L36.3945 21.123L36.4923 20.9287ZM36.4923 18.3029L36.3945 18.1086L36.2747 18.1689V18.3029H36.4923ZM35.6526 20.5088L35.5547 20.7032L35.8702 20.862V20.5088H35.6526ZM33.8728 19.6127L33.7755 19.4181L33.3876 19.612L33.775 19.807L33.8728 19.6127ZM35.6526 18.7228H35.8702V18.3707L35.5553 18.5282L35.6526 18.7228ZM37.6436 17.8329V16.5859H37.2084V17.8329H37.6436ZM37.3261 16.3926L32.9394 18.6611L33.1393 19.0477L37.526 16.7791L37.3261 16.3926ZM32.8218 18.8544V20.3772H33.257V18.8544H32.8218ZM32.9396 20.5706L37.3263 22.8329L37.5258 22.4461L33.1391 20.1838L32.9396 20.5706ZM37.6436 22.6395V21.3987H37.2084V22.6395H37.6436ZM37.5239 21.2043L36.5901 20.7343L36.3945 21.123L37.3282 21.593L37.5239 21.2043ZM36.7099 20.9287V18.3029H36.2747V20.9287H36.7099ZM36.5901 18.4973L37.5239 18.0273L37.3282 17.6386L36.3945 18.1086L36.5901 18.4973ZM35.7504 20.3144L33.9707 19.4183L33.775 19.807L35.5547 20.7032L35.7504 20.3144ZM33.9701 19.8073L35.7499 18.9174L35.5553 18.5282L33.7755 19.4181L33.9701 19.8073ZM35.435 18.7228V20.5088H35.8702V18.7228H35.435ZM33.0394 11.4784H32.8218V11.696H33.0394V11.4784ZM36.3356 11.4784L36.482 11.6394L36.8986 11.2608H36.3356V11.4784ZM33.0394 14.4739L32.893 14.3128L32.8218 14.3776V14.4739H33.0394ZM33.0394 16.0029H32.8218V16.2205H33.0394V16.0029ZM37.426 16.0029V16.2205H37.6436V16.0029H37.426ZM37.426 14.8749H37.6436V14.6573H37.426V14.8749ZM34.136 14.8749L33.9897 14.7139L33.573 15.0925H34.136V14.8749ZM37.426 11.8857L37.5723 12.0468L37.6436 11.982V11.8857H37.426ZM37.426 10.3504H37.6436V10.1328H37.426V10.3504ZM33.0394 10.3504V10.1328H32.8218V10.3504H33.0394ZM33.0394 11.696H36.3356V11.2608H33.0394V11.696ZM36.1893 11.3173L32.893 14.3128L33.1857 14.6349L36.482 11.6394L36.1893 11.3173ZM32.8218 14.4739V16.0029H33.257V14.4739H32.8218ZM33.0394 16.2205H37.426V15.7853H33.0394V16.2205ZM37.6436 16.0029V14.8749H37.2084V16.0029H37.6436ZM37.426 14.6573H34.136V15.0925H37.426V14.6573ZM34.2823 15.036L37.5723 12.0468L37.2797 11.7247L33.9897 14.7139L34.2823 15.036ZM37.6436 11.8857V10.3504H37.2084V11.8857H37.6436ZM37.426 10.1328H33.0394V10.568H37.426V10.1328ZM32.8218 10.3504V11.4784H33.257V10.3504H32.8218Z" fill="#F4FEAB"/>
<path d="M21.7417 10.4009H8.47729V28.6787H21.7417C26.4679 28.6787 30.6195 25.7542 30.6195 19.5398C30.6195 13.3253 26.4679 10.4009 21.7417 10.4009ZM19.9662 24.7359H13.1773V14.3437H19.9662C23.5173 14.3437 25.9195 15.1009 25.9195 19.5398C25.9195 23.9787 23.5173 24.7359 19.9662 24.7359Z" fill="black"/>
</svg>
